<svg xmlns="http://www.w3.org/2000/svg" xmlns:svgjs="http://svgjs.com/svgjs" xmlns:xlink="http://www.w3.org/1999/xlink" width="288" height="288"><svg xmlns="http://www.w3.org/2000/svg" width="288" height="288" version="1.0" viewBox="0 0 80 80"><g fill="#c80000" class="color000 svgShape" transform="matrix(.1 0 0 -.1 0 80)"><path d="M215 540l-160-160 65-65c35-36 71-65 80-65 20 0 310 290 310 310 0 14-118 140-130 140-3 0-77-72-165-160zm215 65c41-42 43-46 28-62-14-14-20-14-33-3-23 19-44-2-25-25 11-13 11-19-3-33-16-15-19-14-47 13-23 22-33 26-42 17-9-9-5-19 17-42 27-28 28-31 13-47-14-14-20-14-33-3-23 19-44-2-25-25 11-13 11-19-3-33-16-15-19-14-47 13-23 22-33 26-42 17-9-9-5-19 17-42 27-29 28-31 12-47-16-17-20-15-64 30l-48 47 135 135c74 74 137 135 140 135 3 0 26-20 50-45zM528 383l-3-128-125-5-125-5 0-75 0-75 205 0 205 0 0 205 0 205-77 3-77 3-3-128zm122-83l0-170-170 0-170 0 0 45c0 41 2 45 25 45 18 0 25-5 25-20 0-11 6-20 14-20 7 0 16 9 19 20 7 27 47 27 47 0 0-26 30-26 37 0 7 26 43 26 50 0 3-11 12-20 19-20 8 0 14 9 14 20 0 13 7 20 20 20 11 0 20 6 20 14 0 7-9 16-20 19-11 3-20 14-20 25 0 11 9 22 20 25 11 3 20 12 20 21 0 9-8 16-20 16-15 0-20 7-20 25 0 18 5 25 20 25 11 0 20 6 20 14 0 7-9 16-20 19-12 3-20 14-20 26 0 18 6 21 45 21l45 0 0-170z" class="color000 svgShape"/></g></svg></svg>