<svg xmlns="http://www.w3.org/2000/svg" xmlns:svgjs="http://svgjs.com/svgjs" xmlns:xlink="http://www.w3.org/1999/xlink" width="288" height="288"><svg xmlns="http://www.w3.org/2000/svg" width="288" height="288" version="1.0" viewBox="0 0 80 84"><g fill="#c80000" class="color000 svgShape" transform="matrix(.1 0 0 -.1 0 84)"><path d="M328 773l-128-4 0-66 0-66 178 7 177 7 30 30 29 29-34 35c-30 31-39 35-79 33-26-1-103-4-173-5zm-60-66c3-32 0-37-17-37-18 0-21 6-21 41 0 33 3 40 18 37 12-2 18-14 20-41zm287 23c17-19 17-21 0-40-16-18-31-20-135-20l-118 0-5 33c-2 17-3 35 0 40 2 4 57 7 122 7 105 0 120-2 136-20zM130 587c-45-23-50-48-50-250 0-210 6-237 61-256 49-17 491-15 533 3 52 22 58 48 54 269-4 266 27 241-311 245-198 2-268-1-287-11zm523-50c16-11 17-33 15-207l-3-195-260 0-260 0-3 195c-2 174-1 196 15 207 24 18 472 18 496 0z" class="color000 svgShape"/><path d="M205 467c-3-7-4-71-3-143l3-129 80 0 80 0 0 140 0 140-78 3c-58 2-79-1-82-11zm113-129l-3-93-30 0-30 0-3 79c-2 44-1 85 2 93 3 7 19 13 36 13l31 0-3-92zM447 474c-4-4-7-16-7-26 0-14 6-19 23-16 14 2 22 10 22 23 0 20-25 32-38 19zM567 474c-4-4-7-16-7-26 0-14 6-19 23-16 14 2 22 10 22 23 0 20-25 32-38 19zM444 345c-4-9-2-21 4-27 15-15 44-1 40 19-4 23-36 29-44 8zM560 335c0-22 4-26 23-23 14 2 22 10 22 23 0 13-8 21-22 23-19 3-23-1-23-23zM442 218c2-15 10-23 23-23 30 0 27 39-3 43-20 3-23 0-20-20zM562 218c2-15 10-23 23-23 30 0 27 39-3 43-20 3-23 0-20-20z" class="color000 svgShape"/></g></svg></svg>